<svg width="27" height="27" viewBox="0 0 27 27" fill="none" xmlns="http://www.w3.org/2000/svg">
<path d="M2.8125 4.78125C2.8125 4.55747 2.90139 4.34286 3.05963 4.18463C3.21786 4.02639 3.43247 3.9375 3.65625 3.9375H4.284C5.35275 3.9375 5.994 4.65637 6.35962 5.32462C6.60375 5.77012 6.78038 6.2865 6.91875 6.7545L7.03125 6.75H21.0915C22.0252 6.75 22.7003 7.64325 22.4438 8.54212L20.3872 15.7522C20.2029 16.399 19.8128 16.968 19.2761 17.3732C18.7394 17.7783 18.0852 17.9976 17.4127 17.9978H10.7212C10.0434 17.9978 9.38436 17.7752 8.84534 17.3642C8.30632 16.9533 7.91719 16.3766 7.73775 15.723L6.88275 12.6045L5.46525 7.8255L5.46412 7.8165C5.28862 7.17862 5.12437 6.58125 4.87912 6.13575C4.644 5.70263 4.455 5.625 4.28513 5.625H3.65625C3.43247 5.625 3.21786 5.53611 3.05963 5.37787C2.90139 5.21964 2.8125 5.00503 2.8125 4.78125ZM10.125 23.625C10.7217 23.625 11.294 23.3879 11.716 22.966C12.1379 22.544 12.375 21.9717 12.375 21.375C12.375 20.7783 12.1379 20.206 11.716 19.784C11.294 19.3621 10.7217 19.125 10.125 19.125C9.52826 19.125 8.95597 19.3621 8.53401 19.784C8.11205 20.206 7.875 20.7783 7.875 21.375C7.875 21.9717 8.11205 22.544 8.53401 22.966C8.95597 23.3879 9.52826 23.625 10.125 23.625ZM18 23.625C18.5967 23.625 19.169 23.3879 19.591 22.966C20.0129 22.544 20.25 21.9717 20.25 21.375C20.25 20.7783 20.0129 20.206 19.591 19.784C19.169 19.3621 18.5967 19.125 18 19.125C17.4033 19.125 16.831 19.3621 16.409 19.784C15.9871 20.206 15.75 20.7783 15.75 21.375C15.75 21.9717 15.9871 22.544 16.409 22.966C16.831 23.3879 17.4033 23.625 18 23.625Z" fill="black"/>
</svg>
