<svg width="21" height="21" viewBox="0 0 21 21" fill="none" xmlns="http://www.w3.org/2000/svg">
<path d="M2.625 5.70851C2.625 5.36289 2.91113 5.08376 3.26375 5.08376H7.45325C7.4585 4.34701 7.539 3.33814 8.26875 2.63989C8.86987 2.06656 9.66931 1.74772 10.5 1.75001C11.3307 1.74772 12.1301 2.06656 12.7312 2.63989C13.461 3.33814 13.5415 4.34701 13.5468 5.08376H17.7362C18.0889 5.08376 18.375 5.36376 18.375 5.70851C18.3743 5.79154 18.3572 5.87362 18.3247 5.95002C18.2922 6.02643 18.2449 6.09565 18.1855 6.15371C18.1262 6.21177 18.0559 6.25752 17.9788 6.28834C17.9017 6.31915 17.8193 6.33442 17.7362 6.33326H3.26375C3.18072 6.33442 3.09829 6.31915 3.02118 6.28834C2.94408 6.25752 2.87383 6.21177 2.81446 6.15371C2.7551 6.09565 2.70781 6.02643 2.67529 5.95002C2.64277 5.87362 2.62568 5.79154 2.625 5.70851ZM10.1561 19.25H10.8448C13.2134 19.25 14.3972 19.25 15.1672 18.4949C15.9373 17.7398 16.0169 16.4999 16.1744 14.0228L16.4019 10.4528C16.4876 9.10789 16.5296 8.43501 16.1438 8.00976C15.757 7.58364 15.1051 7.58364 13.7996 7.58364H7.20125C5.89662 7.58364 5.24388 7.58364 4.85713 8.00976C4.47125 8.43501 4.51412 9.10789 4.599 10.4519L4.8265 14.0219C4.984 16.5008 5.06275 17.7398 5.83275 18.4949C6.60275 19.25 7.7875 19.25 10.1561 19.25Z" fill="black"/>
</svg>
